<svg width="1418" height="82" viewBox="0 0 1418 82" fill="none" xmlns="http://www.w3.org/2000/svg">
<path d="M-22 11.2432C-22 11.2432 241 0 666 0C1091 0 1418 11.2432 1418 11.2432V672C1418 672 1359 672 920 672C481 672 -22 672 -22 672V11.2432Z" fill="#EFF5FB"/>
<path d="M-22 11.2432C-22 11.2432 241 0 666 0C1091 0 1418 11.2432 1418 11.2432V672C1418 672 1359 672 920 672C481 672 -22 672 -22 672V11.2432Z" fill="url(#paint0_linear_4492_1367)"/>
<defs>
<linearGradient id="paint0_linear_4492_1367" x1="698" y1="281.899" x2="698" y2="472.216" gradientUnits="userSpaceOnUse">
<stop stop-color="white" stop-opacity="0"/>
<stop offset="1" stop-color="white"/>
</linearGradient>
</defs>
</svg>
