<svg width="56" height="36" viewBox="0 0 56 36" fill="none" xmlns="http://www.w3.org/2000/svg">
<path opacity="0.06" d="M19.9938 15.1184L19.7798 15.5213L20.1615 15.7712C21.5291 16.6667 22.5622 17.8079 23.2709 19.1977L23.2708 19.1978L23.2747 19.2051C23.9824 20.5374 24.3412 22.0437 24.3412 23.7353C24.3412 27.2487 23.1144 30.0797 20.6667 32.2724C18.2056 34.4185 15.171 35.5 11.5301 35.5C8.19208 35.5 5.53973 34.5603 3.52442 32.7191C1.51261 30.8811 0.5 28.4903 0.5 25.5C0.5 23.9794 0.798758 22.5164 1.39758 21.1073C1.99995 19.6898 3.12935 17.8441 4.80858 15.561L4.80859 15.561L4.81067 15.5581L15.7223 0.5H27.759L19.9938 15.1184ZM47.1785 15.1184L46.9645 15.5213L47.3462 15.7712C48.7138 16.6667 49.7469 17.8079 50.4556 19.1977L50.4555 19.1978L50.4594 19.2051C51.1671 20.5374 51.5259 22.0437 51.5259 23.7353C51.5259 27.2487 50.2991 30.0797 47.8514 32.2724C45.3903 34.4185 42.3557 35.5 38.7148 35.5C35.3768 35.5 32.7244 34.5603 30.7091 32.7191C28.6973 30.8811 27.6847 28.4903 27.6847 25.5C27.6847 23.9794 27.9835 22.5164 28.5823 21.1073C29.1847 19.6898 30.3141 17.8441 31.9933 15.561L31.9954 15.5581L42.907 0.5H54.9437L47.1785 15.1184Z" fill="#333333" stroke="black"/>
</svg>
