<svg width="0" height="0" class="hidden">
<symbol fill="none" xmlns="http://www.w3.org/2000/svg" viewBox="0 0 16 16" id="Arrow">
    <g clip-path="url(#clip0_4492_2226)">
      <path d="M5.8125 12.6875L7.375 11.125L10.5 8L7.375 4.875L5.8125 3.3125" stroke="#333333" stroke-opacity="0.7" stroke-linecap="round" stroke-linejoin="round"></path>
    </g>
    <defs>
      <clipPath id="clip0_4492_2226">
        <rect width="16" height="16" fill="white" transform="matrix(0 1 1 0 0 0)"></rect>
      </clipPath>
    </defs>
  </symbol>
  <symbol fill="none" xmlns="http://www.w3.org/2000/svg" viewBox="0 0 14 14" id="Arrow-down">
    <path d="M2.09998 4.8999L6.99998 9.0999L11.9 4.8999" stroke="#333333" stroke-linecap="round" stroke-linejoin="round"></path>
  </symbol>
  <symbol fill="none" xmlns="http://www.w3.org/2000/svg" viewBox="0 0 32 32" id="Twitter">
    <g clip-path="url(#clip0_4492_2047)">
      <rect width="32" height="32" rx="16" fill="#EFF5FB"></rect>
      <g clip-path="url(#clip1_4492_2047)">
        <path d="M24.4702 10.7133C23.834 10.9947 23.1593 11.1795 22.4685 11.2616C23.1967 10.8261 23.7416 10.1408 24.0019 9.33327C23.3185 9.73994 22.5694 10.0249 21.7885 10.1791C21.264 9.61792 20.5688 9.24574 19.811 9.12043C19.0532 8.99511 18.2752 9.12368 17.5979 9.48615C16.9207 9.84862 16.3822 10.4247 16.0661 11.1248C15.7501 11.8249 15.6742 12.6098 15.8502 13.3574C14.4645 13.288 13.1088 12.9279 11.8713 12.3005C10.6337 11.6731 9.54198 10.7925 8.66688 9.71577C8.35712 10.2478 8.19434 10.8526 8.19521 11.4683C8.19521 12.6766 8.81021 13.7441 9.74521 14.3691C9.19188 14.3517 8.65074 14.2023 8.16688 13.9333V13.9766C8.16704 14.7814 8.44552 15.5613 8.95508 16.1842C9.46465 16.807 10.1739 17.2345 10.9627 17.3941C10.4491 17.5333 9.91046 17.5538 9.38771 17.4541C9.6101 18.1468 10.0435 18.7526 10.6274 19.1867C11.2112 19.6208 11.9161 19.8614 12.6435 19.8749C11.9206 20.4427 11.0929 20.8624 10.2076 21.1101C9.32236 21.3577 8.39698 21.4285 7.48438 21.3183C9.07746 22.3428 10.932 22.8867 12.826 22.8849C19.2369 22.8849 22.7427 17.5741 22.7427 12.9683C22.7427 12.8183 22.7385 12.6666 22.7319 12.5183C23.4143 12.0251 24.0032 11.4141 24.471 10.7141L24.4702 10.7133Z" fill="#333333"></path>
      </g>
    </g>
    <defs>
      <clipPath id="clip0_4492_2047">
        <rect width="32" height="32" fill="white"></rect>
      </clipPath>
      <clipPath id="clip1_4492_2047">
        <rect width="18" height="18" fill="white" transform="translate(7 7)"></rect>
      </clipPath>
    </defs>
  </symbol>
  <symbol fill="none" xmlns="http://www.w3.org/2000/svg" viewBox="0 0 32 32" id="Zen">
    <g clip-path="url(#clip0_4492_2052)">
      <path d="M0 16C0 7.16343 7.16343 0 16 0C24.8366 0 32 7.16343 32 16C32 24.8366 24.8366 32 16 32C7.16343 32 0 24.8366 0 16Z" fill="#333333"></path>
      <path fill-rule="evenodd" clip-rule="evenodd" d="M15.6762 0C15.6006 6.58251 15.1702 10.2664 12.7183 12.7183C10.2664 15.1702 6.58251 15.6006 0 15.6762V16.6315C6.58251 16.707 10.2664 17.1375 12.7183 19.5894C15.1317 22.0028 15.5866 25.6099 15.6724 32H16.6353C16.721 25.6099 17.1759 22.0028 19.5894 19.5894C22.0028 17.1759 25.6099 16.721 32 16.6353V15.6723C25.6099 15.5866 22.0028 15.1317 19.5894 12.7183C17.1375 10.2664 16.707 6.58251 16.6315 0H15.6762Z" fill="white"></path>
    </g>
    <defs>
      <clipPath id="clip0_4492_2052">
        <rect width="32" height="32" fill="white"></rect>
      </clipPath>
    </defs>
  </symbol>
  <symbol fill="none" xmlns="http://www.w3.org/2000/svg" viewBox="0 0 32 32" id="VK">
    <g clip-path="url(#clip0_4492_2039)">
      <rect width="32" height="32" rx="16" fill="#EFF5FB"></rect>
      <g clip-path="url(#clip1_4492_2039)">
        <path d="M25.8217 20.5411C25.768 20.4479 25.4355 19.6996 23.8353 18.1615C22.1602 16.551 22.3852 16.8125 24.4029 14.0277C25.6317 12.3318 26.123 11.296 25.9692 10.8533C25.823 10.4312 24.9192 10.5426 24.9192 10.5426L21.9139 10.5607C21.9139 10.5607 21.6914 10.5296 21.5252 10.6319C21.3639 10.7329 21.2601 10.9659 21.2601 10.9659C21.2601 10.9659 20.7839 12.2787 20.1488 13.3947C18.81 15.7496 18.2737 15.8739 18.0549 15.7276C17.5461 15.3871 17.6736 14.3579 17.6736 13.6277C17.6736 11.3452 18.0074 10.3937 17.0223 10.1477C16.6948 10.0661 16.4548 10.0118 15.6185 10.0027C14.5459 9.99105 13.6371 10.0066 13.1233 10.2668C12.7808 10.4403 12.517 10.8274 12.6783 10.8494C12.877 10.8766 13.3271 10.975 13.5658 11.3116C13.8746 11.7453 13.8634 12.7214 13.8634 12.7214C13.8634 12.7214 14.0409 15.4078 13.4496 15.7418C13.0433 15.971 12.487 15.5036 11.2932 13.3662C10.6819 12.2722 10.2193 11.0617 10.2193 11.0617C10.2193 11.0617 10.1306 10.8364 9.97182 10.716C9.77931 10.5698 9.50929 10.5231 9.50929 10.5231L6.65158 10.5413C6.65158 10.5413 6.2228 10.5542 6.06528 10.7471C5.92527 10.9193 6.05403 11.274 6.05403 11.274C6.05403 11.274 8.2917 16.6947 10.8244 19.4277C13.1483 21.9328 15.786 21.7684 15.786 21.7684H16.9811C16.9811 21.7684 17.3424 21.727 17.5261 21.5211C17.6961 21.3321 17.6899 20.9774 17.6899 20.9774C17.6899 20.9774 17.6661 19.3163 18.4112 19.0717C19.145 18.8309 20.0876 20.677 21.0864 21.3878C21.8414 21.925 22.4152 21.8072 22.4152 21.8072L25.0867 21.7684C25.0867 21.7684 26.4843 21.6791 25.8217 20.5411Z" fill="#333333"></path>
      </g>
    </g>
    <defs>
      <clipPath id="clip0_4492_2039">
        <rect width="32" height="32" fill="white"></rect>
      </clipPath>
      <clipPath id="clip1_4492_2039">
        <rect width="20" height="12" fill="white" transform="translate(6 10)"></rect>
      </clipPath>
    </defs>
  </symbol>
  
  <symbol fill="none" xmlns="http://www.w3.org/2000/svg" viewBox="0 0 32 32" id="Telegram">
    <g clip-path="url(#clip0_4492_2043)">
      <rect width="32" height="32" rx="16" fill="#EFF5FB"></rect>
      <g clip-path="url(#clip1_4492_2043)">
        <path d="M8.28261 15.7694L11.9693 17.1638L13.3963 21.8146C13.4876 22.1125 13.847 22.2226 14.0856 22.0249L16.1406 20.3271C16.3561 20.1492 16.6629 20.1404 16.888 20.306L20.5946 23.0331C20.8498 23.2211 21.2113 23.0794 21.2753 22.7669L23.9906 9.53073C24.0604 9.18936 23.7295 8.90457 23.4087 9.03029L8.27829 14.9455C7.9049 15.0914 7.90815 15.6272 8.28261 15.7694ZM13.1663 16.4215L20.3716 11.9242C20.5011 11.8437 20.6343 12.0211 20.5231 12.1256L14.5767 17.7273C14.3677 17.9245 14.2329 18.1883 14.1947 18.4747L13.9921 19.996C13.9653 20.1991 13.6837 20.2193 13.6284 20.0227L12.8494 17.2486C12.7602 16.9322 12.8902 16.5943 13.1663 16.4215Z" fill="#333333"></path>
      </g>
    </g>
    <defs>
      <clipPath id="clip0_4492_2043">
        <rect width="32" height="32" fill="white"></rect>
      </clipPath>
      <clipPath id="clip1_4492_2043">
        <rect width="16" height="14" fill="white" transform="translate(8 9)"></rect>
      </clipPath>
    </defs>
  </symbol>
  
  <symbol fill="none" xmlns="http://www.w3.org/2000/svg" viewBox="0 0 25 24" id="player">
    <path d="M3.5 13.0001H9.5V11.0001H3.5V1.84611C3.50001 1.75922 3.52267 1.67384 3.56573 1.59838C3.6088 1.52291 3.67078 1.45997 3.74558 1.41576C3.82037 1.37155 3.9054 1.34759 3.99227 1.34625C4.07915 1.34491 4.16487 1.36623 4.241 1.40811L22.703 11.5621C22.7814 11.6053 22.8468 11.6687 22.8923 11.7457C22.9378 11.8228 22.9618 11.9106 22.9618 12.0001C22.9618 12.0896 22.9378 12.1774 22.8923 12.2545C22.8468 12.3315 22.7814 12.3949 22.703 12.4381L4.241 22.5921C4.16487 22.634 4.07915 22.6553 3.99227 22.654C3.9054 22.6526 3.82037 22.6287 3.74558 22.5844C3.67078 22.5402 3.6088 22.4773 3.56573 22.4018C3.52267 22.3264 3.50001 22.241 3.5 22.1541V13.0001Z" fill="white"></path>
  </symbol>

  
  <symbol fill="none" xmlns="http://www.w3.org/2000/svg" viewBox="0 0 56 36" id="quote">
    <path opacity="0.06" d="M20.4354 15.3529C21.8727 16.2941 22.9664 17.5 23.7163 18.9706C24.4662 20.3824 24.8412 21.9706 24.8412 23.7353C24.8412 27.3824 23.5601 30.3529 20.9978 32.6471C18.4356 34.8824 15.2797 36 11.5301 36C8.09292 36 5.31195 35.0294 3.18717 33.0882C1.06239 31.1471 0 28.6176 0 25.5C0 23.9118 0.312468 22.3824 0.937404 20.9118C1.56234 19.4412 2.71847 17.5588 4.4058 15.2647L15.4672 0H28.5908L20.4354 15.3529ZM47.6201 15.3529C49.0574 16.2941 50.1511 17.5 50.901 18.9706C51.6509 20.3824 52.0259 21.9706 52.0259 23.7353C52.0259 27.3824 50.7448 30.3529 48.1825 32.6471C45.6203 34.8824 42.4644 36 38.7148 36C35.2776 36 32.4967 35.0294 30.3719 33.0882C28.2471 31.1471 27.1847 28.6176 27.1847 25.5C27.1847 23.9118 27.4972 22.3824 28.1221 20.9118C28.747 19.4412 29.9032 17.5588 31.5905 15.2647L42.6519 0H55.7755L47.6201 15.3529Z" fill="#333333"></path>
  </symbol>


</svg>


